<?xml version="1.0" encoding="utf-8"?>
<!-- Svg Vector Icons : http://www.onlinewebfonts.com/icon -->
<!DOCTYPE svg PUBLIC "-//W3C//DTD SVG 1.1//EN" "http://www.w3.org/Graphics/SVG/1.1/DTD/svg11.dtd">
<svg version="1.1" xmlns="http://www.w3.org/2000/svg" xmlns:xlink="http://www.w3.org/1999/xlink" x="0px" y="0px" viewBox="0 0 1000 1000" enable-background="new 0 0 1000 1000" xml:space="preserve">
<metadata> Svg Vector Icons : http://www.onlinewebfonts.com/icon </metadata>
<g><path d="M434.7,10C389.8,50.8,320.4,165.2,304,246.8c-40.8,40.8-40.8,85.8-8.2,138.8c24.5,36.7,16.3,85.7,28.6,130.7c8.2,40.9,32.7,81.7,44.9,118.4c32.7,85.8,61.3,183.8,40.8,224.6c-24.5,40.8-57.2,36.8-98,53.1c-40.8,16.3-69.4,24.5-85.8,28.6c-40.8,4.1-36.7,8.2-36.7,16.3c0,20.4,16.3,32.7,36.7,32.7c12.3,0,20.4-4.1,32.7-8.2c8.2,8.2,20.4,8.2,36.7,8.2c114.3,0,110.2-12.2,151.1-12.2c16.3,0,53.1,12.2,93.9,12.2c40.8,0,57.2-28.6,57.2-53.1c0-44.9-40.8-65.4-61.3-196c-20.4-134.8,24.5-220.5,16.3-273.6c-12.2-89.8-77.6-122.5-73.5-134.8c4.1-16.3,28.6-44.9,61.2-61.3c40.8-20.4,224.6-130.7,269.5-257.2H434.7V10z"/></g>
</svg>